<svg version="1" xmlns="http://www.w3.org/2000/svg" width="533.333" height="533.333" viewBox="0 0 400.000000 400.000000"><path d="M223.7 53.6c-.1.1-3.6.5-7.7.8-27.5 2.2-51.8 10.8-69 24.5-19.7 15.7-30.1 37.9-29.4 62.7.7 28.4 17.3 50.3 52.7 69.3 3.2 1.7 15.2 6.9 26.6 11.4 11.5 4.6 23.3 9.7 26.2 11.4 16.1 9.2 21.1 22.9 14.8 40-2.6 6.9-10.6 15.3-18.7 19.6-15.2 8.2-44.6 7.8-58.1-.7-3.9-2.5-10.2-9.1-12.2-12.7-2.1-4.1-4.5-15.2-4.4-21.1 0-3.2-.4-5.9-1-6.1-.5-.2-13.4-.3-28.5-.2H87.5l.1 6.5c.2 14.7 3.1 25.7 10.2 39.3 11.1 21.2 31.8 36.5 59.2 43.7 6.4 1.7 8 2 20 3.5 5.2.7 25.3.7 29 0 1.4-.2 4.3-.6 6.5-.9 34.7-4.1 66.4-24.8 78-51 8.9-20.1 9.3-44.5 1-63.2-10.6-23.9-33.5-40.8-77.8-57.6-17.7-6.7-24.1-9.9-30.5-15.4-5.6-4.7-8.5-10.5-8.8-17.4-.9-21.7 21.5-39.5 49.1-39.1 13.9.2 21 2.4 29.6 9.3 5.5 4.5 10.2 16.8 10.2 26.9v4.7h27.6c15.2 0 28.1-.4 28.7-.9 1.1-.9 1.1-2.7-.1-13.4-.3-2.8-.6-5.5-.7-6-.3-3.4-4.2-15-6.8-20.4-4.4-8.9-8-14-15.2-21.1-15.8-15.8-36-24.2-61.8-25.8-6.1-.4-11.2-.7-11.3-.6z"/></svg>